<?xml version="1.0" encoding="UTF-8" standalone="no"?>
<!DOCTYPE svg PUBLIC "-//W3C//DTD SVG 1.1//EN" "http://www.w3.org/Graphics/SVG/1.1/DTD/svg11.dtd">
<!-- Created with Vectornator (http://vectornator.io/) -->
<svg height="100%" stroke-miterlimit="10" style="fill-rule:nonzero;clip-rule:evenodd;stroke-linecap:round;stroke-linejoin:round;" version="1.1" viewBox="183.048 76.1514 530.466 473.961" width="100%" xml:space="preserve" xmlns="http://www.w3.org/2000/svg" xmlns:vectornator="http://vectornator.io" xmlns:xlink="http://www.w3.org/1999/xlink">
<defs>
<linearGradient gradientTransform="matrix(539.749 0 0 617.309 108.9 366.988)" gradientUnits="userSpaceOnUse" id="LinearGradient" x1="0" x2="1" y1="0" y2="0">
<stop offset="0" stop-color="#f9f7ff" stop-opacity="0.05"/>
    <stop offset="0.992694" stop-color="#2b00c7" stop-opacity="0.05"/>
</linearGradient>
    <linearGradient gradientTransform="matrix(5.48419e-15 89.5637 -793.657 4.85975e-14 420.997 208.111)" gradientUnits="userSpaceOnUse" id="LinearGradient_2" x1="0" x2="1" y1="0" y2="0">
<stop offset="0" stop-color="#d4c9f0"/>
        <stop offset="0.993289" stop-color="#8981a5"/>
</linearGradient>
    <linearGradient gradientTransform="matrix(140.307 129.298 -153.569 166.645 358.404 143.626)" gradientUnits="userSpaceOnUse" id="LinearGradient_3" x1="0" x2="1" y1="0" y2="0">
<stop offset="0" stop-color="#ebe3ff"/>
        <stop offset="1" stop-color="#a895ee"/>
</linearGradient>
    <linearGradient gradientTransform="matrix(108.685 100.157 -84.0286 91.1835 374.207 158.197)" gradientUnits="userSpaceOnUse" id="LinearGradient_4" x1="0" x2="1" y1="0" y2="0">
<stop offset="0" stop-color="#d8cdf8"/>
        <stop offset="0.993289" stop-color="#a090da"/>
</linearGradient>
    <linearGradient gradientTransform="matrix(-108.685 -100.157 84.0286 -91.1835 398.754 349.643)" gradientUnits="userSpaceOnUse" id="LinearGradient_5" x1="0" x2="1" y1="0" y2="0">
<stop offset="0" stop-color="#a090da"/>
        <stop offset="1" stop-color="#d8cdf8"/>
</linearGradient>
    <linearGradient gradientTransform="matrix(108.685 100.157 -84.0286 91.1835 458.338 66.9021)" gradientUnits="userSpaceOnUse" id="LinearGradient_6" x1="0" x2="1" y1="0" y2="0">
<stop offset="0" stop-color="#d8cdf8"/>
        <stop offset="0.993289" stop-color="#a090da"/>
</linearGradient>
    <linearGradient gradientTransform="matrix(304.684 0 0 524.66 268.651 252.88)" gradientUnits="userSpaceOnUse" id="LinearGradient_7" x1="0" x2="1" y1="0" y2="0">
<stop offset="0" stop-color="#efeaff"/>
        <stop offset="0.658207" stop-color="#7c6cb5"/>
        <stop offset="0.966915" stop-color="#7f64e3"/>
</linearGradient>
    <linearGradient gradientTransform="matrix(54.5582 0 0 54.5582 393.718 408.406)" gradientUnits="userSpaceOnUse" id="LinearGradient_8" x1="0" x2="1" y1="0" y2="0">
<stop offset="0" stop-color="#d8ccf8"/>
        <stop offset="0.633984" stop-color="#7c6cb5"/>
        <stop offset="0.990964" stop-color="#907add"/>
</linearGradient>
</defs>
    <clipPath id="ArtboardFrame">
<rect height="473.961" width="530.466" x="183.048" y="76.1514"/>
</clipPath>
    <g clip-path="url(#ArtboardFrame)" id="Layer" vectornator:layerName="Layer">
<path d="M183.202 402.643C183.202 375.744 235.222 357.653 264.292 336.919C312.784 302.332 285.588 237.035 378.774 237.035C468.887 237.035 446.134 274.036 495.15 306.716C527.207 328.089 559.129 284.368 623.191 334.596C653.061 358.015 773.147 382.172 676.674 459.01C634.555 492.557 510.748 550.112 430.835 550.112C406.299 550.112 311.694 517.549 289.101 514.594C174.448 499.601 183.202 462.599 183.202 402.643Z" fill="url(#LinearGradient)" fill-rule="nonzero" opacity="1" stroke="none" vectornator:layerName="Овал 2"/>
        <path d="M420.997 208.111C505.134 208.111 573.34 228.161 573.34 252.893C573.34 277.625 505.134 297.675 420.997 297.675C336.861 297.675 268.655 277.625 268.655 252.893C268.655 228.161 336.861 208.111 420.997 208.111Z" fill="url(#LinearGradient_2)" fill-rule="nonzero" opacity="1" stroke="none" vectornator:layerName="Овал 1"/>
        <g opacity="1" vectornator:layerName="Группа 3">
<path d="M424.243 79.5398C422.212 77.6685 419.049 77.7976 417.178 79.8283L299.602 207.415C297.731 209.446 297.86 212.609 299.891 214.48L432.855 337.011C434.886 338.882 438.049 338.753 439.92 336.722L557.495 209.136C559.367 207.105 559.237 203.942 557.207 202.07L424.243 79.5398ZM418.769 83.5893C419.517 82.777 420.783 82.7254 421.595 83.4739L427.179 88.6199C427.991 89.3685 428.043 90.6337 427.294 91.446L422.127 97.0532C421.379 97.8655 420.113 97.9171 419.301 97.1686L413.717 92.0226C412.905 91.274 412.853 90.0088 413.602 89.1965L418.769 83.5893ZM546.883 198.931L552.468 204.077C553.28 204.826 553.332 206.091 552.583 206.903L547.416 212.511C546.667 213.323 545.402 213.375 544.59 212.626L539.005 207.48C538.193 206.731 538.142 205.466 538.89 204.654L544.057 199.047C544.432 198.641 544.935 198.436 545.447 198.415C545.958 198.394 546.477 198.557 546.883 198.931ZM403.034 100.664C403.783 99.8514 405.048 99.7997 405.86 100.548L411.444 105.694C412.257 106.443 412.308 107.708 411.56 108.52L406.414 114.105C405.665 114.917 404.4 114.968 403.588 114.22L398.004 109.074C397.191 108.325 397.14 107.06 397.888 106.248L403.034 100.664ZM531.149 216.006L536.733 221.152C537.545 221.9 537.597 223.166 536.848 223.978L531.702 229.562C530.954 230.374 529.689 230.426 528.876 229.677L523.292 224.531C522.48 223.783 522.428 222.518 523.177 221.705L528.323 216.121C528.697 215.715 529.201 215.51 529.712 215.489C530.224 215.468 530.743 215.631 531.149 216.006ZM387.3 117.738C388.048 116.926 389.313 116.874 390.126 117.623L395.71 122.769C396.522 123.517 396.574 124.782 395.825 125.595L390.679 131.179C389.931 131.991 388.665 132.043 387.853 131.294L382.269 126.148C381.457 125.4 381.405 124.134 382.154 123.322L387.3 117.738ZM515.414 233.08L520.998 238.226C521.811 238.975 521.862 240.24 521.114 241.052L515.968 246.636C515.219 247.449 513.954 247.5 513.142 246.752L507.558 241.606C506.745 240.857 506.694 239.592 507.442 238.78L512.588 233.195C512.962 232.789 513.466 232.585 513.978 232.564C514.489 232.543 515.008 232.706 515.414 233.08ZM371.565 134.812C372.314 134 373.579 133.948 374.391 134.697L379.975 139.843C380.788 140.592 380.839 141.857 380.091 142.669L374.945 148.253C374.196 149.066 372.931 149.117 372.119 148.369L366.534 143.223C365.722 142.474 365.67 141.209 366.419 140.397L371.565 134.812ZM499.68 250.154L505.264 255.3C506.076 256.049 506.128 257.314 505.379 258.127L500.233 263.711C499.485 264.523 498.219 264.575 497.407 263.826L491.823 258.68C491.011 257.932 490.959 256.666 491.708 255.854L496.854 250.27C497.228 249.864 497.753 249.636 498.264 249.615C498.776 249.594 499.274 249.78 499.68 250.154ZM355.852 151.864C356.6 151.051 357.865 151 358.678 151.748L364.262 156.894C365.074 157.643 365.126 158.908 364.377 159.72L359.21 165.328C358.462 166.14 357.196 166.192 356.384 165.443L350.8 160.297C349.988 159.548 349.936 158.283 350.684 157.471L355.852 151.864ZM483.966 267.206L489.55 272.352C490.363 273.1 490.414 274.366 489.666 275.178L484.499 280.785C483.75 281.597 482.485 281.649 481.673 280.901L476.088 275.754C475.276 275.006 475.224 273.741 475.973 272.928L481.14 267.321C481.514 266.915 482.018 266.71 482.53 266.689C483.041 266.669 483.56 266.832 483.966 267.206ZM340.117 168.938C340.866 168.126 342.131 168.074 342.943 168.823L348.527 173.969C349.34 174.717 349.391 175.983 348.643 176.795L343.476 182.402C342.727 183.214 341.462 183.266 340.649 182.517L335.065 177.371C334.253 176.623 334.201 175.358 334.95 174.545L340.117 168.938ZM468.232 284.28L473.816 289.426C474.628 290.175 474.68 291.44 473.931 292.252L468.764 297.859C468.016 298.672 466.75 298.723 465.938 297.975L460.354 292.829C459.542 292.08 459.49 290.815 460.238 290.003L465.406 284.396C465.78 283.989 466.284 283.785 466.795 283.764C467.307 283.743 467.826 283.906 468.232 284.28ZM324.383 186.012C325.131 185.2 326.396 185.148 327.209 185.897L332.793 191.043C333.605 191.792 333.657 193.057 332.908 193.869L327.762 199.453C327.014 200.266 325.748 200.317 324.936 199.569L319.352 194.423C318.54 193.674 318.488 192.409 319.236 191.597L324.383 186.012ZM452.497 301.355L458.081 306.501C458.894 307.249 458.945 308.514 458.197 309.327L453.051 314.911C452.302 315.723 451.037 315.775 450.225 315.026L444.64 309.88C443.828 309.132 443.776 307.866 444.525 307.054L449.671 301.47C450.045 301.064 450.549 300.859 451.061 300.838C451.572 300.817 452.091 300.98 452.497 301.355ZM308.648 203.087C309.396 202.275 310.662 202.223 311.474 202.971L317.058 208.117C317.87 208.866 317.922 210.131 317.174 210.943L312.028 216.528C311.279 217.34 310.014 217.392 309.201 216.643L303.617 211.497C302.805 210.749 302.753 209.483 303.502 208.671L308.648 203.087ZM436.763 318.429L442.347 323.575C443.159 324.323 443.211 325.589 442.462 326.401L437.316 331.985C436.568 332.797 435.302 332.849 434.49 332.101L428.906 326.955C428.094 326.206 428.042 324.941 428.79 324.128L433.936 318.544C434.311 318.138 434.815 317.933 435.326 317.913C435.837 317.892 436.356 318.055 436.763 318.429Z" fill="url(#LinearGradient_3)" fill-rule="nonzero" opacity="1" stroke="none" vectornator:layerName="Кривая 1"/>
            <path d="M408.807 120.65C410.678 118.62 413.842 118.49 415.872 120.362L517.203 213.742C519.234 215.613 519.363 218.776 517.492 220.807L448.291 295.9C446.419 297.931 443.256 298.06 441.226 296.189L339.894 202.809C337.864 200.938 337.735 197.774 339.606 195.744L408.807 120.65Z" fill="url(#LinearGradient_4)" fill-rule="nonzero" opacity="1" stroke="none" vectornator:layerName="Прямоугольник 15"/>
            <path d="M420.715 325.824L433.358 312.104C435.229 310.074 435.1 306.911 433.07 305.039L331.727 211.648C329.696 209.777 326.533 209.906 324.661 211.937L312.019 225.656L420.715 325.824Z" fill="url(#LinearGradient_5)" fill-rule="nonzero" opacity="1" stroke="none" vectornator:layerName="Кривая 3"/>
            <path d="M436.376 90.7213L423.734 104.441C421.862 106.471 421.992 109.634 424.022 111.506L525.365 204.897C527.396 206.768 530.559 206.639 532.43 204.608L545.073 190.889L436.376 90.7213Z" fill="url(#LinearGradient_6)" fill-rule="nonzero" opacity="1" stroke="none" vectornator:layerName="Кривая 2"/>
</g>
        <path d="M268.652 252.893C268.652 319.829 336.86 374.081 420.996 374.081C505.132 374.081 573.34 319.829 573.34 252.893C573.34 277.625 505.132 297.674 420.996 297.674C336.86 297.674 268.652 277.625 268.652 252.893Z" fill="url(#LinearGradient_7)" fill-rule="nonzero" opacity="1" stroke="none" vectornator:layerName="Кривая 2"/>
        <path d="M393.719 372.031L401.857 458.165C401.997 459.649 402.792 460.993 404.025 461.83L434.417 482.48C437.631 484.663 441.999 482.507 442.219 478.628L448.281 372.031C439.411 373.31 430.333 374.094 421 374.094C411.678 374.094 402.579 373.307 393.719 372.031Z" fill="url(#LinearGradient_8)" fill-rule="nonzero" opacity="1" stroke="none" vectornator:layerName="Кривая 3"/>
        <g opacity="1" vectornator:layerName="Группа 2">
<path d="M466.991 340.399L573.34 446.748" fill="none" opacity="1" stroke="#fd6666" stroke-linecap="butt" stroke-linejoin="round" stroke-width="25.7074" vectornator:layerName="Линия 1"/>
            <path d="M573.34 340.399L466.991 446.748" fill="none" opacity="1" stroke="#fd6666" stroke-linecap="butt" stroke-linejoin="round" stroke-width="25.7074" vectornator:layerName="Линия 2"/>
</g>
</g>
</svg>
