<?xml version="1.0" encoding="UTF-8" standalone="no"?>
<!DOCTYPE svg PUBLIC "-//W3C//DTD SVG 1.1//EN" "http://www.w3.org/Graphics/SVG/1.1/DTD/svg11.dtd">
<!-- Created with Vectornator (http://vectornator.io/) -->
<svg height="100%" stroke-miterlimit="10" style="fill-rule:nonzero;clip-rule:evenodd;stroke-linecap:round;stroke-linejoin:round;" version="1.1" viewBox="183.048 75.8236 530.466 474.289" width="100%" xml:space="preserve" xmlns="http://www.w3.org/2000/svg" xmlns:vectornator="http://vectornator.io" xmlns:xlink="http://www.w3.org/1999/xlink">
<defs>
<linearGradient gradientTransform="matrix(539.749 0 0 617.309 108.9 366.988)" gradientUnits="userSpaceOnUse" id="LinearGradient" x1="0" x2="1" y1="0" y2="0">
<stop offset="0" stop-color="#f9f7ff" stop-opacity="0.05"/>
    <stop offset="0.992694" stop-color="#2b00c7" stop-opacity="0.05"/>
</linearGradient>
    <linearGradient gradientTransform="matrix(5.48419e-15 89.5637 -793.657 4.85975e-14 420.997 208.111)" gradientUnits="userSpaceOnUse" id="LinearGradient_2" x1="0" x2="1" y1="0" y2="0">
<stop offset="0" stop-color="#d4c9f0"/>
        <stop offset="0.993289" stop-color="#8981a5"/>
</linearGradient>
    <linearGradient gradientTransform="matrix(142.967 83.7587 -95.8992 163.689 349.512 166.232)" gradientUnits="userSpaceOnUse" id="LinearGradient_3" x1="0" x2="1" y1="0" y2="0">
<stop offset="0" stop-color="#f1ebff"/>
        <stop offset="0.993289" stop-color="#c5b6f8"/>
</linearGradient>
    <linearGradient gradientTransform="matrix(115.215 67.5003 -67.5003 115.215 401.445 109.402)" gradientUnits="userSpaceOnUse" id="LinearGradient_4" x1="0" x2="1" y1="0" y2="0">
<stop offset="0" stop-color="#d3c6f3"/>
        <stop offset="0.993289" stop-color="#aa9ae3"/>
</linearGradient>
    <linearGradient gradientTransform="matrix(115.215 67.5003 -67.5003 115.215 387.533 133.148)" gradientUnits="userSpaceOnUse" id="LinearGradient_5" x1="0" x2="1" y1="0" y2="0">
<stop offset="0" stop-color="#d3c6f3"/>
        <stop offset="0.993289" stop-color="#aa9ae3"/>
</linearGradient>
    <linearGradient gradientTransform="matrix(115.215 67.5003 -67.5003 115.215 372.272 159.198)" gradientUnits="userSpaceOnUse" id="LinearGradient_6" x1="0" x2="1" y1="0" y2="0">
<stop offset="0" stop-color="#d3c6f3"/>
        <stop offset="0.993289" stop-color="#aa9ae3"/>
</linearGradient>
    <linearGradient gradientTransform="matrix(304.684 0 0 524.66 268.651 252.88)" gradientUnits="userSpaceOnUse" id="LinearGradient_7" x1="0" x2="1" y1="0" y2="0">
<stop offset="0" stop-color="#efeaff"/>
        <stop offset="0.658207" stop-color="#7c6cb5"/>
        <stop offset="0.966915" stop-color="#7f64e3"/>
</linearGradient>
    <linearGradient gradientTransform="matrix(54.5582 0 0 54.5582 393.718 408.406)" gradientUnits="userSpaceOnUse" id="LinearGradient_8" x1="0" x2="1" y1="0" y2="0">
<stop offset="0" stop-color="#d8ccf8"/>
        <stop offset="0.633984" stop-color="#7c6cb5"/>
        <stop offset="0.990964" stop-color="#907add"/>
</linearGradient>
</defs>
    <clipPath id="ArtboardFrame">
<rect height="474.289" width="530.466" x="183.048" y="75.8236"/>
</clipPath>
    <g clip-path="url(#ArtboardFrame)" id="Layer" vectornator:layerName="Layer">
<path d="M183.202 402.643C183.202 375.744 235.222 357.653 264.292 336.919C312.784 302.332 285.588 237.035 378.774 237.035C468.887 237.035 446.134 274.036 495.15 306.716C527.207 328.089 559.129 284.368 623.191 334.596C653.061 358.015 773.147 382.172 676.674 459.01C634.555 492.557 510.748 550.112 430.835 550.112C406.299 550.112 311.694 517.549 289.101 514.594C174.448 499.601 183.202 462.599 183.202 402.643Z" fill="url(#LinearGradient)" fill-rule="nonzero" opacity="1" stroke="none" vectornator:layerName="Овал 2"/>
        <path d="M420.997 208.111C505.134 208.111 573.34 228.161 573.34 252.893C573.34 277.625 505.134 297.675 420.997 297.675C336.861 297.675 268.655 277.625 268.655 252.893C268.655 228.161 336.861 208.111 420.997 208.111Z" fill="url(#LinearGradient_2)" fill-rule="nonzero" opacity="1" stroke="none" vectornator:layerName="Овал 1"/>
        <g opacity="1" vectornator:layerName="Группа 1">
<path d="M399.952 80.1378C401.348 77.7551 404.411 76.9552 406.793 78.3511L541.132 157.055C543.514 158.451 544.314 161.514 542.918 163.896L442.04 336.085C440.644 338.467 437.581 339.267 435.198 337.871L300.86 259.168C298.477 257.772 297.677 254.709 299.073 252.326L399.952 80.1378Z" fill="url(#LinearGradient_3)" fill-rule="nonzero" opacity="1" stroke="none" vectornator:layerName="Прямоугольник 1"/>
            <path d="M401.445 109.402C403.246 106.328 407.197 105.296 410.271 107.097L514.356 168.077C517.429 169.877 518.461 173.829 516.661 176.902L516.661 176.902C514.86 179.976 510.909 181.008 507.835 179.207L403.75 118.227C400.676 116.427 399.645 112.475 401.445 109.402L401.445 109.402Z" fill="url(#LinearGradient_4)" fill-rule="nonzero" opacity="1" stroke="none" vectornator:layerName="Прямоугольник 2"/>
            <path d="M387.533 133.148C389.334 130.074 393.285 129.043 396.359 130.843L500.444 191.823C503.518 193.623 504.549 197.575 502.749 200.648L502.749 200.648C500.948 203.722 496.997 204.754 493.923 202.953L389.838 141.973C386.765 140.173 385.733 136.221 387.533 133.148L387.533 133.148Z" fill="url(#LinearGradient_5)" fill-rule="nonzero" opacity="1" stroke="none" vectornator:layerName="Прямоугольник 3"/>
            <path d="M372.272 159.198C374.072 156.125 378.024 155.093 381.097 156.893L485.182 217.873C488.256 219.674 489.288 223.625 487.487 226.698L487.487 226.698C485.686 229.772 481.735 230.804 478.661 229.003L374.576 168.024C371.503 166.223 370.471 162.272 372.272 159.198L372.272 159.198Z" fill="url(#LinearGradient_6)" fill-rule="nonzero" opacity="1" stroke="none" vectornator:layerName="Прямоугольник 4"/>
</g>
        <path d="M268.652 252.893C268.652 319.829 336.86 374.081 420.996 374.081C505.132 374.081 573.34 319.829 573.34 252.893C573.34 277.625 505.132 297.674 420.996 297.674C336.86 297.674 268.652 277.625 268.652 252.893Z" fill="url(#LinearGradient_7)" fill-rule="nonzero" opacity="1" stroke="none" vectornator:layerName="Кривая 2"/>
        <path d="M393.719 372.031L401.857 458.165C401.997 459.649 402.792 460.993 404.025 461.83L434.417 482.48C437.631 484.663 441.999 482.507 442.219 478.628L448.281 372.031C439.411 373.31 430.333 374.094 421 374.094C411.678 374.094 402.579 373.307 393.719 372.031Z" fill="url(#LinearGradient_8)" fill-rule="nonzero" opacity="1" stroke="none" vectornator:layerName="Кривая 3"/>
        <g opacity="1" vectornator:layerName="Группа 2">
<path d="M466.991 340.399L573.34 446.748" fill="none" opacity="1" stroke="#fd6666" stroke-linecap="butt" stroke-linejoin="round" stroke-width="25.7074" vectornator:layerName="Линия 1"/>
            <path d="M573.34 340.399L466.991 446.748" fill="none" opacity="1" stroke="#fd6666" stroke-linecap="butt" stroke-linejoin="round" stroke-width="25.7074" vectornator:layerName="Линия 2"/>
</g>
</g>
</svg>
