<?xml version="1.0" encoding="UTF-8" standalone="no"?>
<!DOCTYPE svg PUBLIC "-//W3C//DTD SVG 1.1//EN" "http://www.w3.org/Graphics/SVG/1.1/DTD/svg11.dtd">
<!-- Created with Vectornator (http://vectornator.io/) -->
<svg height="100%" stroke-miterlimit="10" style="fill-rule:nonzero;clip-rule:evenodd;stroke-linecap:round;stroke-linejoin:round;" version="1.1" viewBox="90.2031 114.341 552.305 421.682" width="100%" xml:space="preserve" xmlns="http://www.w3.org/2000/svg" xmlns:vectornator="http://vectornator.io" xmlns:xlink="http://www.w3.org/1999/xlink">
<defs>
<linearGradient gradientTransform="matrix(552.305 0 0 695.133 90.2031 400.332)" gradientUnits="userSpaceOnUse" id="LinearGradient" x1="0" x2="1" y1="0" y2="0">
<stop offset="0" stop-color="#f6f3ff" stop-opacity="0.1"/>
    <stop offset="0.966967" stop-color="#7355e3" stop-opacity="0.1"/>
</linearGradient>
    <linearGradient gradientTransform="matrix(175.934 100.707 -100.707 175.934 374.524 163.969)" gradientUnits="userSpaceOnUse" id="LinearGradient_2" x1="0" x2="1" y1="0" y2="0">
<stop offset="0" stop-color="#c5b9e3"/>
        <stop offset="0.966443" stop-color="#8d79d4"/>
</linearGradient>
    <linearGradient gradientTransform="matrix(243.71 64.3004 -64.3004 243.71 196.238 340.607)" gradientUnits="userSpaceOnUse" id="LinearGradient_3" x1="0" x2="1" y1="0" y2="0">
<stop offset="0" stop-color="#b2a6d3"/>
        <stop offset="0.96695" stop-color="#7868b4"/>
</linearGradient>
</defs>
    <clipPath id="ArtboardFrame">
<rect height="421.682" width="552.305" x="90.2031" y="114.341"/>
</clipPath>
    <g clip-path="url(#ArtboardFrame)" id="Layer" vectornator:layerName="Layer">
<path d="M90.2031 400.332C90.2031 325.393 213.841 264.642 366.356 264.642C518.871 264.642 642.509 325.393 642.509 400.332C642.509 475.272 518.871 536.022 366.356 536.022C213.841 536.022 90.2031 475.272 90.2031 400.332Z" fill="url(#LinearGradient)" fill-rule="nonzero" opacity="1" stroke="none" vectornator:layerName="Овал 3"/>
        <path d="M460.839 114.342C448.102 114.458 436.09 120.289 436.09 120.289L436.267 139.773C426.55 143.177 417.729 148.418 410.177 155.092L393.362 144.587C393.362 144.587 382.109 151.774 375.359 162.577C368.609 173.379 366.356 187.802 366.356 187.802L384.861 199.376C383.908 204.396 383.401 209.571 383.449 214.875C383.499 220.344 384.126 225.689 385.232 230.834L367.254 242.251C367.254 242.251 368.875 255.501 375.705 266.254C382.534 277.007 394.575 285.27 394.575 285.27L411.58 274.48C419.153 280.859 427.936 285.803 437.536 288.986L437.706 307.64C437.706 307.64 451.183 313.24 463.92 313.124C476.658 313.008 488.648 307.177 488.648 307.177L488.479 288.523C498.151 285.121 506.939 279.912 514.463 273.269L533.405 283.733C533.405 283.733 544.909 274.747 551.069 263.598C557.23 252.449 558.037 239.136 558.037 239.136L539.779 229.048C540.743 224.002 541.26 218.778 541.212 213.443C541.164 208.146 540.56 202.989 539.519 197.993L557.667 186.576C557.667 186.576 555.391 172.148 548.61 161.365C541.828 150.582 530.536 143.448 530.536 143.448L513.446 154.197C505.809 147.682 496.939 142.611 487.21 139.374L487.033 119.827C487.033 119.827 473.577 114.227 460.839 114.342ZM461.921 177.298C482.045 177.115 498.506 193.28 498.688 213.404C498.871 233.527 482.707 249.988 462.583 250.171C442.459 250.353 425.999 234.189 425.816 214.065C425.633 193.941 441.798 177.481 461.921 177.298Z" fill="url(#LinearGradient_2)" fill-rule="nonzero" opacity="1" stroke="none" vectornator:layerName="Кривая 2"/>
        <path d="M318.049 247.103C301.95 246.992 286.654 254.118 286.654 254.118L286.484 278.742C274.137 282.848 262.885 289.293 253.207 297.573L232.171 283.96C232.171 283.96 217.806 292.814 209.058 306.329C200.31 319.843 197.172 338.023 197.172 338.023L220.323 353.022C219.017 359.347 218.272 365.875 218.226 372.579C218.178 379.49 218.862 386.257 220.156 392.782L197.209 406.845C197.209 406.845 198.989 423.622 207.402 437.347C215.815 451.073 230.865 461.758 230.865 461.758L252.57 448.466C262.011 456.68 273.009 463.105 285.077 467.32L284.915 490.896C284.915 490.896 301.832 498.244 317.93 498.355C334.028 498.466 349.297 491.34 349.297 491.34L349.46 467.764C361.75 463.66 372.961 457.256 382.602 449.013L406.327 462.618C406.327 462.618 421.045 451.495 429.055 437.531C437.066 423.567 438.354 406.76 438.354 406.76L415.486 393.644C416.806 387.286 417.565 380.695 417.611 373.953C417.657 367.258 416.998 360.73 415.783 354.396L438.946 340.335C438.946 340.335 436.362 322.058 428.01 308.295C419.659 294.532 405.533 285.289 405.533 285.289L383.72 298.527C374.202 290.14 363.095 283.553 350.867 279.267L351.037 254.562C351.037 254.562 334.147 247.214 318.049 247.103ZM318.145 326.679C343.579 326.854 364.052 347.612 363.877 373.045C363.702 398.478 342.944 418.952 317.511 418.777C292.077 418.602 271.603 397.844 271.779 372.41C271.954 346.977 292.712 326.503 318.145 326.679Z" fill="url(#LinearGradient_3)" fill-rule="nonzero" opacity="1" stroke="none" vectornator:layerName="Кривая 1"/>
</g>
</svg>
